<svg width="425" height="242" viewBox="0 0 425 242" fill="none" xmlns="http://www.w3.org/2000/svg">
<rect x="120.252" y="174.466" width="297.005" height="56.6229" rx="12.9657" transform="rotate(0.29118 120.252 174.466)" fill="#181818"/>
<rect x="120.252" y="174.466" width="297.005" height="56.6229" rx="12.9657" transform="rotate(0.29118 120.252 174.466)" stroke="#3E3E3E" stroke-width="1.99472"/>
<path d="M154.226 199.776L153.316 197.153L149.242 197.132L148.29 199.746L146.919 199.739L150.636 189.957L151.98 189.964L155.598 199.783L154.226 199.776ZM149.654 195.973L152.902 195.989L151.301 191.403L149.654 195.973ZM159.207 199.997C157.429 199.988 156.161 198.82 156.071 197.237L157.387 197.244C157.466 198.21 158.191 198.9 159.213 198.905C160.347 198.911 161.05 198.284 161.054 197.57C161.058 196.744 160.626 196.364 159.226 196.357L158.708 196.355C157.308 196.347 156.22 195.586 156.227 194.256C156.233 193.052 157.261 191.895 159.249 191.905C161.068 191.914 162.141 193.04 162.245 194.608L160.929 194.602C160.85 193.579 160.265 193.002 159.243 192.997C158.137 192.992 157.546 193.521 157.543 194.263C157.539 194.963 157.902 195.244 159.231 195.265L159.609 195.267C161.359 195.276 162.377 196.191 162.37 197.577C162.364 198.781 161.265 200.008 159.207 199.997ZM170.012 199.856L168.486 199.848L166.095 196.476L164.982 197.758L164.972 199.83L163.712 199.824L163.769 188.624L165.029 188.631L164.991 196.05L168.203 192.147L169.855 192.155L166.926 195.528L170.012 199.856ZM181.125 198.821L181.699 198.823L181.693 199.915L180.937 199.912C180.013 199.907 179.526 199.358 179.53 198.546L179.531 198.378C179.133 199.524 178.108 200.107 176.876 200.101C175.364 200.093 174.15 199.261 174.159 197.581C174.167 195.999 175.291 195.193 177.139 195.202L177.881 195.206C179.057 195.212 179.437 194.878 179.439 194.318C179.443 193.562 178.76 193.096 177.752 193.091C176.618 193.086 175.845 193.656 175.728 194.677L174.468 194.671C174.588 193.047 175.671 191.989 177.757 191.999C179.899 192.01 180.747 193.135 180.74 194.688L180.721 198.342C180.719 198.65 180.845 198.819 181.125 198.821ZM179.471 196.32L179.476 195.34L179.462 195.34C179.305 195.955 178.673 196.302 177.609 196.297L177.161 196.294C175.901 196.288 175.478 196.916 175.475 197.588C175.471 198.302 175.944 199.004 177.092 199.01C178.351 199.016 179.462 198.196 179.471 196.32ZM182.674 199.92L182.714 192.22L183.945 192.227L183.939 193.571L183.967 193.571C184.362 192.831 185.122 192.037 186.438 192.043C188.104 192.052 189.12 193.247 189.111 195.095L189.086 199.953L187.826 199.947L187.85 195.215C187.858 193.787 187.133 193.167 186.125 193.162C184.963 193.156 183.965 193.991 183.956 195.587L183.934 199.927L182.674 199.92ZM195.887 192.287L197.273 192.294L193.446 201.641C193.276 202.074 192.868 202.352 192.392 202.35L190.054 202.338L190.06 201.246L192.314 201.257L193.008 199.553L190.106 192.258L191.491 192.265L193.66 198.128L195.887 192.287ZM202.367 193.412L200.141 193.401L200.118 197.839C200.115 198.525 200.449 198.919 201.037 198.922L202.339 198.928L202.333 200.02L200.891 200.013C199.547 200.006 198.851 199.331 198.858 197.945L198.881 193.395L197.481 193.388L197.487 192.296L198.887 192.303L198.897 190.203L200.157 190.209L200.147 192.309L202.373 192.32L202.367 193.412ZM203.387 200.026L203.444 188.826L204.704 188.832L204.685 192.542C204.683 192.892 204.682 193.158 204.651 193.676L204.679 193.676C205.075 192.936 205.835 192.142 207.151 192.149C208.817 192.157 209.833 193.352 209.824 195.2L209.799 200.058L208.539 200.052L208.563 195.32C208.57 193.892 207.845 193.272 206.837 193.267C205.675 193.261 204.677 194.096 204.669 195.692L204.647 200.032L203.387 200.026ZM211.553 191.065L211.559 189.749L212.875 189.756L212.869 191.072L211.553 191.065ZM211.535 200.067L211.574 192.367L212.834 192.374L212.795 200.073L211.535 200.067ZM214.598 200.083L214.637 192.383L215.869 192.389L215.862 193.733L215.89 193.733C216.286 192.993 217.046 192.199 218.362 192.206C220.028 192.214 221.044 193.409 221.034 195.257L221.01 200.115L219.75 200.109L219.774 195.377C219.781 193.949 219.056 193.329 218.048 193.324C216.886 193.318 215.888 194.153 215.88 195.749L215.858 200.089L214.598 200.083ZM226.981 198.76C228.493 198.767 229.259 199.513 229.253 200.633C229.248 201.753 228.474 202.533 226.948 202.525L224.4 202.512C222.986 202.505 222.261 201.858 222.266 200.962C222.269 200.262 222.664 199.732 223.533 199.526C222.666 199.34 222.277 198.764 222.28 198.162C222.283 197.504 222.762 196.96 223.644 196.853C223.017 196.401 222.628 195.713 222.633 194.845C222.641 193.235 224.018 192.234 225.768 192.243C226.608 192.248 227.349 192.475 227.907 192.898L227.921 192.898C227.922 192.562 228.316 192.256 228.722 192.258L229.268 192.261L229.262 193.353L228.94 193.351L228.366 193.349C228.686 193.756 228.88 194.275 228.877 194.877C228.868 196.487 227.477 197.488 225.741 197.479L224.103 197.471C223.669 197.469 223.402 197.677 223.4 198.027C223.398 198.461 223.803 198.743 224.615 198.748L226.981 198.76ZM225.762 193.335C224.74 193.316 223.954 193.858 223.949 194.852C223.944 195.846 224.725 196.396 225.747 196.387C226.769 196.378 227.555 195.864 227.561 194.87C227.566 193.876 226.784 193.354 225.762 193.335ZM226.953 201.433C227.583 201.437 227.935 201.158 227.937 200.626C227.94 200.094 227.591 199.855 226.961 199.851L224.413 199.839C223.783 199.835 223.432 200.114 223.429 200.604C223.427 201.15 223.775 201.417 224.405 201.42L226.953 201.433ZM237.302 200.394C235.174 200.383 233.488 198.905 233.501 196.329C233.514 193.739 235.215 192.291 237.343 192.302C239.471 192.313 241.158 193.778 241.145 196.367C241.132 198.943 239.43 200.405 237.302 200.394ZM237.308 199.302C238.708 199.295 239.819 198.307 239.829 196.361C239.839 194.401 238.738 193.415 237.338 193.394C235.938 193.373 234.827 194.375 234.817 196.335C234.807 198.281 235.908 199.309 237.308 199.302ZM242.488 200.224L242.527 192.524L243.759 192.531L243.752 193.875L243.78 193.875C244.176 193.135 244.936 192.341 246.252 192.347C247.918 192.356 248.934 193.551 248.925 195.399L248.9 200.257L247.64 200.251L247.664 195.519C247.671 194.091 246.946 193.471 245.938 193.466C244.776 193.46 243.778 194.295 243.77 195.891L243.748 200.231L242.488 200.224ZM257.789 200.456C255.423 200.444 253.765 198.952 253.705 196.893L255.063 196.9C255.126 198.329 256.255 199.314 257.795 199.322C259.321 199.33 260.263 198.439 260.269 197.445C260.274 196.395 259.633 195.845 257.659 195.835L257.001 195.832C255.293 195.823 253.898 194.85 253.906 193.268C253.913 191.742 255.153 190.279 257.561 190.291C259.927 190.303 261.334 191.724 261.463 193.713L260.106 193.706C260.001 192.277 259.053 191.432 257.555 191.425C256.057 191.417 255.269 192.183 255.264 193.275C255.259 194.185 255.789 194.664 257.665 194.673L258.141 194.676C260.311 194.687 261.635 195.828 261.626 197.452C261.619 198.936 260.267 200.469 257.789 200.456ZM270.032 190.564L271.334 190.571L271.284 200.371L269.534 200.362L264.354 192.173L264.312 200.335L263.01 200.329L263.06 190.529L264.81 190.538L269.99 198.726L270.032 190.564ZM277.101 200.61C274.889 200.599 273.188 199.148 273.201 196.586L273.232 190.58L274.59 190.587L274.559 196.593C274.55 198.483 275.693 199.483 277.107 199.476C278.521 199.469 279.674 198.509 279.683 196.619L279.714 190.613L281.072 190.62L281.041 196.626C281.028 199.188 279.313 200.622 277.101 200.61ZM294.602 195.757C295.022 195.759 295.342 196.083 295.34 196.503L295.32 200.493L294.06 200.486L294.336 198.57C293.685 199.799 292.449 200.674 290.643 200.665C287.913 200.651 285.977 198.625 285.993 195.531C286.008 192.535 287.825 190.459 290.835 190.474C293.621 190.488 295.151 192.288 295.35 194.445L293.993 194.438C293.888 192.939 292.789 191.618 290.829 191.608C288.687 191.597 287.363 193.228 287.351 195.538C287.338 197.988 288.857 199.522 290.789 199.532C292.665 199.541 293.736 198.105 293.91 196.916L290.662 196.899L290.668 195.737L294.602 195.757ZM301.346 190.723C303.138 190.732 304.645 191.846 304.635 193.708C304.626 195.57 303.109 196.612 301.317 196.603L298.293 196.588L298.273 200.508L296.971 200.501L297.021 190.701L301.346 190.723ZM301.029 195.44C302.345 195.447 303.272 194.793 303.277 193.701C303.283 192.609 302.363 191.891 301.047 191.884L298.317 191.87L298.299 195.426L301.029 195.44ZM308.247 200.559L308.291 191.921L305.211 191.905L305.217 190.743L312.692 190.781L312.687 191.943L309.607 191.927L309.563 200.565L308.247 200.559ZM323.679 199.545L324.253 199.548L324.248 200.64L323.492 200.636C322.568 200.631 322.081 200.083 322.085 199.271L322.086 199.103C321.688 200.249 320.663 200.832 319.431 200.825C317.919 200.818 316.705 199.986 316.714 198.306C316.722 196.724 317.846 195.917 319.694 195.927L320.436 195.93C321.612 195.936 321.991 195.602 321.994 195.042C321.998 194.286 321.314 193.821 320.306 193.816C319.172 193.81 318.399 194.38 318.282 195.401L317.022 195.395C317.143 193.772 318.226 192.713 320.312 192.724C322.454 192.735 323.302 193.859 323.294 195.413L323.276 199.067C323.274 199.375 323.399 199.544 323.679 199.545ZM322.026 197.045L322.031 196.065L322.017 196.064C321.86 196.68 321.228 197.026 320.164 197.021L319.716 197.019C318.456 197.012 318.033 197.64 318.03 198.312C318.026 199.026 318.498 199.729 319.646 199.734C320.906 199.741 322.016 198.921 322.026 197.045ZM325.229 200.645L325.268 192.945L326.5 192.951L326.493 194.295L326.521 194.295C326.917 193.555 327.677 192.761 328.993 192.768C330.659 192.776 331.675 193.972 331.666 195.82L331.641 200.677L330.381 200.671L330.405 195.939C330.412 194.511 329.688 193.891 328.68 193.886C327.518 193.88 326.519 194.715 326.511 196.311L326.489 200.651L325.229 200.645ZM339.246 200.156C339.247 199.862 339.249 199.61 339.278 199.288L339.25 199.288C338.699 200.293 337.716 200.904 336.47 200.898C334.552 200.888 332.936 199.438 332.949 196.792C332.962 194.202 334.593 192.796 336.511 192.806C337.757 192.812 338.734 193.433 339.275 194.444L339.303 194.444C339.277 194.122 339.278 193.87 339.279 193.576L339.3 189.516L340.56 189.523L340.503 200.722L339.243 200.716L339.246 200.156ZM336.77 199.808C338.268 199.801 339.268 198.574 339.277 196.81C339.286 195.116 338.298 193.921 336.8 193.9C335.316 193.878 334.274 195.049 334.265 196.799C334.256 198.591 335.286 199.814 336.77 199.808ZM350.04 199.385C351.552 199.393 352.318 200.139 352.312 201.259C352.307 202.378 351.533 203.159 350.007 203.151L347.459 203.138C346.045 203.131 345.32 202.483 345.324 201.587C345.328 200.887 345.723 200.357 346.592 200.151C345.725 199.965 345.336 199.389 345.339 198.787C345.342 198.129 345.821 197.585 346.703 197.478C346.076 197.027 345.687 196.339 345.692 195.471C345.7 193.861 347.077 192.86 348.827 192.869C349.667 192.873 350.408 193.101 350.966 193.524L350.98 193.524C350.981 193.188 351.375 192.882 351.781 192.884L352.327 192.886L352.321 193.978L351.999 193.977L351.425 193.974C351.745 194.382 351.939 194.901 351.935 195.503C351.927 197.113 350.536 198.113 348.8 198.105L347.162 198.096C346.728 198.094 346.461 198.303 346.459 198.653C346.457 199.087 346.862 199.369 347.674 199.373L350.04 199.385ZM348.821 193.961C347.799 193.941 347.013 194.483 347.008 195.477C347.003 196.471 347.784 197.021 348.806 197.013C349.828 197.004 350.614 196.49 350.62 195.496C350.625 194.502 349.843 193.98 348.821 193.961ZM350.012 202.059C350.642 202.062 350.994 201.784 350.996 201.252C350.999 200.72 350.65 200.48 350.02 200.477L347.472 200.464C346.842 200.461 346.491 200.739 346.488 201.229C346.486 201.775 346.834 202.043 347.464 202.046L350.012 202.059ZM360.276 196.385L360.271 197.393L354.251 197.362C354.397 198.945 355.344 199.902 356.66 199.909C357.696 199.914 358.525 199.33 358.837 198.45L360.195 198.457C359.866 199.939 358.488 201.01 356.654 201.001C354.415 200.989 352.911 199.372 352.923 196.936C352.936 194.402 354.484 192.897 356.696 192.909C358.768 192.919 360.286 194.411 360.276 196.385ZM356.69 194.001C355.346 193.994 354.431 194.983 354.271 196.242L359.003 196.266C358.869 194.95 357.992 194.007 356.69 194.001ZM365.552 194.242L363.326 194.23L363.304 198.668C363.3 199.354 363.634 199.748 364.222 199.751L365.524 199.758L365.519 200.85L364.077 200.842C362.733 200.835 362.036 200.16 362.043 198.774L362.066 194.224L360.666 194.217L360.672 193.125L362.072 193.132L362.083 191.032L363.343 191.038L363.332 193.138L365.558 193.15L365.552 194.242ZM376.63 199.814L377.204 199.817L377.198 200.909L376.442 200.905C375.518 200.9 375.031 200.352 375.035 199.54L375.036 199.372C374.638 200.518 373.613 201.101 372.381 201.095C370.869 201.087 369.655 200.255 369.664 198.575C369.672 196.993 370.796 196.186 372.644 196.196L373.386 196.2C374.562 196.206 374.942 195.871 374.945 195.311C374.949 194.555 374.265 194.09 373.257 194.085C372.123 194.079 371.35 194.649 371.233 195.671L369.973 195.664C370.093 194.041 371.176 192.982 373.262 192.993C375.404 193.004 376.253 194.128 376.245 195.682L376.226 199.336C376.225 199.644 376.35 199.813 376.63 199.814ZM374.976 197.314L374.981 196.334L374.967 196.334C374.81 196.949 374.179 197.296 373.115 197.29L372.667 197.288C371.407 197.282 370.983 197.909 370.98 198.581C370.976 199.295 371.449 199.998 372.597 200.004C373.857 200.01 374.967 199.19 374.976 197.314ZM378.18 200.914L378.237 189.714L379.497 189.721L379.44 200.92L378.18 200.914ZM381.256 200.93L381.313 189.73L382.573 189.736L382.516 200.936L381.256 200.93ZM152.648 210.068L154.034 210.075L150.207 219.422C150.036 219.855 149.629 220.133 149.153 220.13L146.815 220.118L146.82 219.026L149.074 219.038L149.769 217.333L146.866 210.039L148.252 210.046L150.42 215.909L152.648 210.068ZM158.079 217.992C155.951 217.981 154.264 216.502 154.278 213.926C154.291 211.336 155.992 209.889 158.12 209.9C160.248 209.911 161.935 211.375 161.921 213.965C161.908 216.541 160.207 218.002 158.079 217.992ZM158.084 216.9C159.485 216.893 160.596 215.904 160.605 213.958C160.615 211.998 159.514 211.013 158.115 210.992C156.715 210.971 155.603 211.973 155.594 213.933C155.584 215.879 156.684 216.907 158.084 216.9ZM165.798 218.031C164.174 218.023 163.186 216.828 163.195 214.98L163.22 210.122L164.48 210.128L164.456 214.86C164.449 216.288 165.145 216.908 166.111 216.912C167.231 216.918 168.202 216.083 168.21 214.487L168.232 210.147L169.492 210.154L169.453 217.853L168.221 217.847L168.228 216.503L168.2 216.503C167.818 217.243 167.072 218.037 165.798 218.031ZM171.276 217.863L171.316 210.163L172.548 210.169L172.541 211.513L172.569 211.513C172.936 210.773 173.64 209.979 174.872 209.985L175.614 209.989L175.609 211.081L174.699 211.076C173.411 211.069 172.567 211.919 172.558 213.529L172.536 217.869L171.276 217.863ZM186.679 216.849L187.253 216.852L187.248 217.944L186.492 217.94C185.568 217.935 185.081 217.387 185.085 216.575L185.086 216.407C184.688 217.553 183.663 218.136 182.431 218.129C180.919 218.122 179.705 217.29 179.714 215.61C179.722 214.028 180.846 213.221 182.694 213.231L183.436 213.234C184.612 213.24 184.991 212.906 184.994 212.346C184.998 211.59 184.315 211.125 183.307 211.12C182.173 211.114 181.4 211.684 181.282 212.705L180.022 212.699C180.143 211.076 181.226 210.017 183.312 210.028C185.454 210.039 186.302 211.163 186.294 212.717L186.276 216.371C186.274 216.679 186.399 216.848 186.679 216.849ZM185.026 214.349L185.031 213.369L185.017 213.368C184.86 213.984 184.228 214.33 183.164 214.325L182.716 214.323C181.456 214.316 181.033 214.944 181.03 215.616C181.026 216.33 181.498 217.033 182.646 217.038C183.906 217.045 185.017 216.225 185.026 214.349ZM188.229 217.949L188.268 210.249L189.5 210.255L189.494 211.599L189.522 211.599C189.917 210.859 190.677 210.065 191.993 210.072C193.659 210.08 194.675 211.276 194.666 213.124L194.641 217.981L193.381 217.975L193.405 213.243C193.413 211.815 192.688 211.195 191.68 211.19C190.518 211.184 189.519 212.019 189.511 213.615L189.489 217.955L188.229 217.949ZM199.078 218.2C197.3 218.191 196.032 217.022 195.942 215.44L197.258 215.447C197.337 216.413 198.062 217.103 199.084 217.108C200.218 217.114 200.921 216.487 200.925 215.773C200.929 214.947 200.497 214.567 199.097 214.56L198.579 214.557C197.179 214.55 196.091 213.789 196.097 212.459C196.104 211.255 197.131 210.098 199.119 210.108C200.939 210.117 202.012 211.243 202.116 212.811L200.8 212.805C200.721 211.782 200.136 211.205 199.114 211.2C198.008 211.194 197.417 211.723 197.413 212.465C197.41 213.165 197.772 213.447 199.102 213.468L199.48 213.47C201.23 213.479 202.248 214.394 202.241 215.78C202.234 216.984 201.136 218.21 199.078 218.2ZM211.372 210.366L212.632 210.373L210.493 218.062L209.065 218.055L207.598 211.971L206.069 218.04L204.627 218.032L202.566 210.322L203.868 210.328L205.349 216.496L206.836 210.343L208.404 210.351L209.829 216.519L211.372 210.366ZM220.296 213.674L220.291 214.682L214.271 214.651C214.417 216.234 215.364 217.191 216.68 217.197C217.716 217.203 218.545 216.619 218.857 215.738L220.215 215.745C219.886 217.228 218.508 218.299 216.674 218.289C214.434 218.278 212.93 216.66 212.943 214.224C212.956 211.69 214.503 210.186 216.715 210.198C218.787 210.208 220.306 211.7 220.296 213.674ZM216.71 211.29C215.366 211.283 214.451 212.272 214.29 213.531L219.022 213.555C218.889 212.239 218.012 211.296 216.71 211.29ZM221.629 218.119L221.668 210.419L222.9 210.425L222.894 211.769L222.922 211.769C223.289 211.029 223.993 210.235 225.225 210.241L225.967 210.245L225.962 211.337L225.052 211.332C223.764 211.325 222.919 212.175 222.911 213.785L222.889 218.125L221.629 218.119ZM229.211 218.353C227.433 218.344 226.165 217.176 226.075 215.593L227.391 215.6C227.47 216.566 228.194 217.256 229.216 217.261C230.35 217.267 231.053 216.64 231.057 215.926C231.061 215.1 230.629 214.72 229.229 214.713L228.711 214.711C227.311 214.703 226.223 213.942 226.23 212.612C226.236 211.408 227.264 210.251 229.252 210.261C231.072 210.27 232.144 211.396 232.248 212.964L230.932 212.958C230.853 211.935 230.268 211.358 229.246 211.353C228.14 211.348 227.55 211.877 227.546 212.619C227.542 213.319 227.905 213.6 229.235 213.621L229.613 213.623C231.363 213.632 232.38 214.547 232.373 215.933C232.367 217.137 231.269 218.364 229.211 218.353ZM237.215 218.198L237.254 210.498L238.486 210.504L238.479 211.848L238.507 211.848C238.875 211.108 239.579 210.314 240.811 210.32L241.553 210.324L241.548 211.416L240.638 211.411C239.35 211.405 238.505 212.254 238.497 213.864L238.475 218.204L237.215 218.198ZM249.075 213.82L249.069 214.828L243.05 214.797C243.196 216.38 244.143 217.337 245.459 217.344C246.495 217.349 247.324 216.765 247.636 215.885L248.994 215.892C248.665 217.374 247.287 218.445 245.453 218.436C243.213 218.424 241.709 216.807 241.722 214.371C241.735 211.837 243.282 210.333 245.494 210.344C247.566 210.354 249.085 211.846 249.075 213.82ZM245.489 211.436C244.145 211.429 243.23 212.418 243.069 213.677L247.801 213.702C247.668 212.385 246.791 211.442 245.489 211.436ZM254.629 216.9C256.141 216.908 256.907 217.654 256.902 218.774C256.896 219.894 256.122 220.674 254.596 220.666L252.048 220.653C250.634 220.646 249.909 219.998 249.914 219.102C249.917 218.402 250.312 217.872 251.181 217.667C250.314 217.48 249.925 216.904 249.928 216.302C249.931 215.644 250.41 215.101 251.293 214.993C250.665 214.542 250.277 213.854 250.281 212.986C250.289 211.376 251.666 210.375 253.416 210.384C254.256 210.388 254.997 210.616 255.555 211.039L255.569 211.039C255.571 210.703 255.964 210.397 256.37 210.399L256.916 210.402L256.911 211.494L256.589 211.492L256.015 211.489C256.335 211.897 256.528 212.416 256.525 213.018C256.517 214.628 255.126 215.629 253.39 215.62L251.752 215.612C251.318 215.609 251.051 215.818 251.049 216.168C251.047 216.602 251.451 216.884 252.263 216.888L254.629 216.9ZM253.411 211.476C252.389 211.457 251.602 211.999 251.597 212.993C251.592 213.987 252.373 214.537 253.395 214.528C254.417 214.519 255.204 214.005 255.209 213.011C255.214 212.017 254.433 211.495 253.411 211.476ZM254.602 219.574C255.232 219.577 255.583 219.299 255.586 218.767C255.588 218.235 255.24 217.995 254.61 217.992L252.062 217.979C251.432 217.976 251.08 218.254 251.078 218.744C251.075 219.29 251.424 219.558 252.054 219.561L254.602 219.574ZM264.567 217.245L265.141 217.248L265.136 218.34L264.38 218.336C263.456 218.331 262.968 217.783 262.972 216.971L262.973 216.803C262.576 217.949 261.551 218.531 260.319 218.525C258.807 218.518 257.593 217.685 257.601 216.005C257.609 214.423 258.733 213.617 260.581 213.626L261.323 213.63C262.499 213.636 262.879 213.302 262.882 212.742C262.886 211.986 262.202 211.521 261.194 211.516C260.06 211.51 259.287 212.08 259.17 213.101L257.91 213.095C258.03 211.472 259.114 210.413 261.2 210.424C263.342 210.434 264.19 211.559 264.182 213.113L264.164 216.767C264.162 217.075 264.287 217.243 264.567 217.245ZM262.914 214.744L262.919 213.764L262.905 213.764C262.748 214.38 262.116 214.726 261.052 214.721L260.604 214.719C259.344 214.712 258.921 215.34 258.917 216.012C258.914 216.726 259.386 217.428 260.534 217.434C261.794 217.441 262.904 216.62 262.914 214.744ZM266.117 218.345L266.156 210.645L267.388 210.651L267.381 211.995L267.409 211.995C267.777 211.255 268.481 210.461 269.713 210.467L270.455 210.471L270.449 211.563L269.54 211.558C268.252 211.551 267.407 212.401 267.399 214.011L267.377 218.351L266.117 218.345ZM276.921 217.84C276.922 217.546 276.924 217.294 276.953 216.972L276.925 216.972C276.374 217.977 275.391 218.588 274.145 218.581C272.227 218.572 270.61 217.122 270.624 214.476C270.637 211.886 272.268 210.48 274.186 210.49C275.432 210.496 276.409 211.117 276.95 212.128L276.978 212.128C276.952 211.806 276.953 211.554 276.954 211.26L276.975 207.2L278.235 207.206L278.178 218.406L276.918 218.4L276.921 217.84ZM274.445 217.491C275.943 217.485 276.943 216.258 276.952 214.494C276.961 212.8 275.973 211.605 274.475 211.583C272.991 211.562 271.949 212.732 271.94 214.482C271.931 216.274 272.961 217.497 274.445 217.491ZM279.997 209.413L280.004 208.097L281.32 208.104L281.313 209.42L279.997 209.413ZM279.98 218.415L280.019 210.715L281.279 210.722L281.24 218.422L279.98 218.415ZM283.043 218.431L283.082 210.731L284.314 210.737L284.307 212.081L284.335 212.081C284.731 211.341 285.491 210.547 286.807 210.554C288.473 210.562 289.489 211.757 289.479 213.605L289.454 218.463L288.194 218.457L288.219 213.725C288.226 212.297 287.501 211.677 286.493 211.672C285.331 211.666 284.333 212.501 284.325 214.097L284.303 218.437L283.043 218.431ZM295.426 217.108C296.938 217.115 297.704 217.861 297.698 218.981C297.692 220.101 296.918 220.881 295.392 220.873L292.844 220.861C291.43 220.853 290.706 220.206 290.71 219.31C290.714 218.61 291.109 218.08 291.978 217.874C291.111 217.688 290.721 217.112 290.725 216.51C290.728 215.852 291.207 215.308 292.089 215.201C291.461 214.749 291.073 214.061 291.077 213.193C291.086 211.583 292.463 210.582 294.213 210.591C295.053 210.596 295.793 210.823 296.351 211.246L296.365 211.246C296.367 210.91 296.761 210.604 297.167 210.606L297.713 210.609L297.707 211.701L297.385 211.7L296.811 211.697C297.131 212.104 297.324 212.623 297.321 213.225C297.313 214.835 295.922 215.836 294.186 215.827L292.548 215.819C292.114 215.817 291.847 216.025 291.845 216.375C291.843 216.809 292.248 217.091 293.06 217.096L295.426 217.108ZM294.207 211.683C293.185 211.664 292.398 212.206 292.393 213.2C292.388 214.194 293.17 214.744 294.192 214.735C295.214 214.727 296 214.213 296.005 213.219C296.01 212.225 295.229 211.703 294.207 211.683ZM295.398 219.782C296.028 219.785 296.379 219.506 296.382 218.975C296.385 218.443 296.036 218.203 295.406 218.2L292.858 218.187C292.228 218.183 291.877 218.462 291.874 218.952C291.871 219.498 292.22 219.765 292.85 219.769L295.398 219.782ZM306.468 211.942L304.242 211.93L304.219 216.368C304.216 217.054 304.55 217.448 305.137 217.451L306.439 217.458L306.434 218.55L304.992 218.542C303.648 218.535 302.951 217.86 302.958 216.474L302.982 211.924L301.582 211.917L301.587 210.825L302.987 210.832L302.998 208.732L304.258 208.738L304.247 210.838L306.473 210.85L306.468 211.942ZM307.488 218.555L307.544 207.355L308.804 207.361L308.786 211.071C308.784 211.421 308.782 211.687 308.752 212.205L308.78 212.205C309.176 211.465 309.936 210.671 311.252 210.678C312.918 210.686 313.934 211.882 313.924 213.73L313.899 218.588L312.639 218.581L312.664 213.849C312.671 212.421 311.946 211.802 310.938 211.796C309.776 211.79 308.778 212.625 308.77 214.221L308.748 218.561L307.488 218.555ZM322.56 214.193L322.555 215.201L316.535 215.171C316.681 216.754 317.628 217.71 318.944 217.717C319.98 217.722 320.809 217.139 321.121 216.258L322.479 216.265C322.15 217.747 320.772 218.818 318.938 218.809C316.699 218.798 315.195 217.18 315.207 214.744C315.22 212.21 316.768 210.706 318.98 210.717C321.052 210.728 322.57 212.22 322.56 214.193ZM318.974 211.809C317.63 211.802 316.715 212.792 316.555 214.051L321.287 214.075C321.153 212.758 320.276 211.816 318.974 211.809ZM330.752 218.869C328.471 218.858 326.939 217.24 326.951 214.79C326.963 212.41 328.4 210.765 330.794 210.777C332.978 210.788 334.174 212.208 334.334 213.931L333.018 213.925C332.939 212.832 332.16 211.876 330.788 211.869C329.234 211.861 328.276 213.075 328.267 214.796C328.258 216.616 329.344 217.77 330.758 217.777C332.116 217.784 332.877 216.752 333.008 215.899L334.324 215.905C334.106 217.472 332.866 218.88 330.752 218.869ZM342.154 217.639L342.728 217.642L342.722 218.734L341.966 218.73C341.042 218.725 340.555 218.177 340.559 217.365L340.56 217.197C340.162 218.343 339.137 218.926 337.905 218.92C336.393 218.912 335.18 218.08 335.188 216.4C335.196 214.818 336.32 214.011 338.168 214.021L338.91 214.025C340.086 214.031 340.466 213.696 340.469 213.136C340.473 212.38 339.789 211.915 338.781 211.91C337.647 211.904 336.874 212.474 336.757 213.496L335.497 213.489C335.617 211.866 336.701 210.807 338.787 210.818C340.929 210.829 341.777 211.953 341.769 213.507L341.75 217.161C341.749 217.469 341.874 217.638 342.154 217.639ZM340.501 215.139L340.506 214.159L340.492 214.159C340.335 214.774 339.703 215.121 338.639 215.115L338.191 215.113C336.931 215.107 336.508 215.734 336.504 216.406C336.501 217.12 336.973 217.823 338.121 217.829C339.381 217.835 340.491 217.015 340.501 215.139ZM352.116 210.886C353.684 210.894 354.63 212.088 354.62 213.936L354.596 218.794L353.336 218.788L353.36 214.056C353.367 212.628 352.712 212.009 351.802 212.004C350.724 211.999 349.81 212.82 349.802 214.416L349.78 218.77L348.52 218.763L348.544 214.032C348.551 212.604 347.896 211.984 346.986 211.98C345.908 211.974 344.994 212.809 344.986 214.405L344.964 218.745L343.704 218.739L343.743 211.039L344.975 211.045L344.968 212.389L344.996 212.389C345.364 211.649 346.068 210.855 347.3 210.861C348.462 210.867 349.285 211.515 349.629 212.609C350.04 211.631 350.828 210.879 352.116 210.886ZM357.646 211.67C357.645 211.964 357.644 212.216 357.614 212.538L357.642 212.538C358.193 211.533 359.176 210.922 360.422 210.928C362.34 210.938 363.957 212.36 363.944 214.95C363.93 217.596 362.299 219.029 360.381 219.02C359.135 219.013 358.158 218.392 357.617 217.382L357.589 217.382C357.616 217.704 357.615 217.956 357.613 218.25L357.598 221.19L356.338 221.183L356.389 211.103L357.649 211.11L357.646 211.67ZM360.093 217.926C361.577 217.948 362.619 216.735 362.628 214.943C362.637 213.193 361.607 212.012 360.123 212.018C358.625 212.025 357.625 213.21 357.616 214.904C357.607 216.668 358.595 217.905 360.093 217.926ZM367.811 219.058C366.187 219.049 365.199 217.854 365.208 216.006L365.233 211.148L366.493 211.155L366.469 215.887C366.462 217.315 367.158 217.934 368.124 217.939C369.244 217.945 370.215 217.11 370.223 215.514L370.245 211.174L371.505 211.18L371.466 218.88L370.234 218.874L370.241 217.53L370.213 217.53C369.831 218.27 369.085 219.064 367.811 219.058ZM375.976 219.099C374.198 219.09 372.93 217.922 372.84 216.339L374.156 216.346C374.235 217.312 374.96 218.002 375.982 218.007C377.116 218.013 377.819 217.386 377.823 216.672C377.827 215.846 377.395 215.466 375.995 215.459L375.477 215.456C374.077 215.449 372.989 214.688 372.996 213.358C373.002 212.154 374.03 210.997 376.018 211.007C377.837 211.016 378.91 212.142 379.014 213.71L377.698 213.704C377.619 212.681 377.034 212.104 376.012 212.099C374.906 212.093 374.315 212.622 374.312 213.364C374.308 214.064 374.671 214.346 376 214.367L376.378 214.369C378.128 214.378 379.146 215.293 379.139 216.679C379.133 217.883 378.034 219.109 375.976 219.099Z" fill="#D2D2D2"/>
<g filter="url(#filter0_d_0_27)">
<g clip-path="url(#clip0_0_27)">
<rect x="78.6829" y="76.3209" width="299" height="55.1695" rx="13.9631" transform="rotate(4.29118 78.6829 76.3209)" fill="#CCB8A2"/>
<path d="M125.987 104.453L126.634 95.8397L123.562 95.6092L123.649 94.4505L131.104 95.0099L131.017 96.1686L127.946 95.9381L127.3 104.552L125.987 104.453ZM131.347 104.856L132.185 93.6871L133.442 93.7813L133.164 97.4809C133.138 97.83 133.118 98.0952 133.052 98.6097L133.08 98.6118C133.526 97.9012 134.34 97.162 135.652 97.2605C137.313 97.3851 138.243 98.6482 138.105 100.491L137.741 105.335L136.485 105.241L136.839 100.522C136.946 99.0984 136.266 98.4297 135.261 98.3543C134.102 98.2673 133.048 99.0306 132.929 100.622L132.604 104.95L131.347 104.856ZM146.687 101.556L146.612 102.561L140.609 102.111C140.644 103.7 141.522 104.721 142.834 104.819C143.868 104.897 144.735 104.372 145.108 103.516L146.463 103.617C146.03 105.073 144.582 106.045 142.753 105.908C140.519 105.74 139.132 104.022 139.314 101.593C139.504 99.0657 141.152 97.6732 143.358 97.8387C145.424 97.9937 146.835 99.5878 146.687 101.556ZM143.277 98.9276C141.936 98.8271 140.955 99.7502 140.707 100.995L145.425 101.349C145.384 100.026 144.575 99.0251 143.277 98.9276ZM151.83 97.3652L151.928 96.0529L153.24 96.1514L153.142 97.4637L151.83 97.3652ZM151.184 106.344L151.76 98.6657L153.017 98.76L152.44 106.438L151.184 106.344ZM154.238 106.573L154.814 98.8949L156.043 98.9871L155.942 100.327L155.97 100.329C156.417 99.6188 157.23 98.8796 158.543 98.9781C160.204 99.1027 161.134 100.366 160.996 102.209L160.632 107.053L159.376 106.959L159.73 102.24C159.837 100.816 159.157 100.147 158.152 100.072C156.993 99.9849 155.939 100.748 155.819 102.34L155.495 106.668L154.238 106.573ZM165.501 97.5487C164.915 97.5047 164.546 97.9263 164.486 98.7221L164.419 99.6156L166.095 99.7413L166.013 100.83L164.338 100.705L163.843 107.294L162.587 107.2L163.081 100.61L162.104 100.537L162.186 99.448L163.163 99.5213L163.23 98.6278C163.337 97.2038 164.215 96.3571 165.583 96.4598L166.895 96.5583L166.813 97.6472L165.501 97.5487ZM169.613 107.923C167.49 107.764 165.911 106.172 166.104 103.603C166.298 101.02 168.096 99.6949 170.218 99.8541C172.34 100.013 173.92 101.592 173.727 104.175C173.534 106.744 171.735 108.083 169.613 107.923ZM169.694 106.835C171.091 106.925 172.269 106.017 172.414 104.076C172.561 102.122 171.531 101.062 170.136 100.943C168.741 100.824 167.563 101.747 167.416 103.701C167.271 105.642 168.297 106.744 169.694 106.835ZM174.798 108.116L175.374 100.438L176.602 100.53L176.502 101.87L176.53 101.872C176.948 101.159 177.706 100.416 178.934 100.508L179.674 100.564L179.593 101.653L178.685 101.585C177.401 101.488 176.499 102.277 176.379 103.882L176.054 108.21L174.798 108.116ZM189.068 101.269C190.631 101.386 191.492 102.644 191.353 104.487L190.99 109.331L189.733 109.237L190.087 104.518C190.194 103.094 189.584 102.43 188.677 102.362C187.602 102.282 186.632 103.037 186.513 104.629L186.187 108.971L184.931 108.876L185.285 104.158C185.392 102.734 184.782 102.07 183.874 102.002C182.799 101.921 181.829 102.691 181.709 104.282L181.385 108.61L180.128 108.516L180.704 100.838L181.933 100.93L181.832 102.27L181.86 102.272C182.279 101.559 183.037 100.816 184.265 100.908C185.424 100.995 186.199 101.699 186.467 102.814C186.945 101.867 187.783 101.172 189.068 101.269ZM199.355 108.864L199.927 108.907L199.845 109.995L199.091 109.939C198.17 109.87 197.722 109.289 197.783 108.479L197.796 108.311C197.319 109.427 196.256 109.937 195.027 109.844C193.519 109.731 192.367 108.817 192.492 107.141C192.611 105.564 193.788 104.838 195.631 104.976L196.371 105.032C197.544 105.12 197.946 104.813 197.988 104.254C198.044 103.5 197.395 102.988 196.39 102.913C195.259 102.828 194.448 103.343 194.26 104.354L193.003 104.259C193.237 102.648 194.391 101.668 196.471 101.824C198.607 101.984 199.375 103.165 199.259 104.715L198.985 108.359C198.962 108.666 199.075 108.843 199.355 108.864ZM197.88 106.254L197.953 105.277L197.939 105.276C197.74 105.878 197.085 106.18 196.024 106.101L195.577 106.067C194.321 105.973 193.855 106.57 193.805 107.24C193.751 107.952 194.173 108.685 195.318 108.771C196.575 108.866 197.739 108.125 197.88 106.254ZM205.353 103.782L203.133 103.616L202.801 108.041C202.75 108.725 203.056 109.141 203.642 109.185L204.94 109.283L204.859 110.372L203.421 110.264C202.08 110.163 201.433 109.441 201.536 108.059L201.877 103.521L200.481 103.417L200.563 102.328L201.959 102.432L202.116 100.338L203.372 100.433L203.215 102.527L205.435 102.693L205.353 103.782ZM206.541 101.471L206.639 100.158L207.952 100.257L207.853 101.569L206.541 101.471ZM205.895 110.449L206.472 102.771L207.728 102.865L207.152 110.544L205.895 110.449ZM212.286 111.125C210.163 110.966 208.584 109.374 208.777 106.805C208.971 104.222 210.769 102.897 212.891 103.056C215.013 103.215 216.593 104.794 216.4 107.377C216.207 109.946 214.408 111.285 212.286 111.125ZM212.367 110.037C213.764 110.127 214.942 109.219 215.087 107.278C215.234 105.324 214.204 104.264 212.809 104.145C211.414 104.026 210.236 104.949 210.089 106.903C209.944 108.844 210.97 109.946 212.367 110.037ZM217.471 111.318L218.047 103.64L219.275 103.732L219.175 105.072L219.203 105.074C219.649 104.363 220.463 103.624 221.775 103.723C223.436 103.847 224.366 105.111 224.228 106.953L223.865 111.798L222.608 111.703L222.962 106.985C223.069 105.561 222.389 104.892 221.384 104.817C220.225 104.73 219.171 105.493 219.052 107.084L218.727 111.412L217.471 111.318ZM230.891 105.165C230.869 105.458 230.85 105.709 230.798 106.028L230.826 106.03C231.446 105.066 232.469 104.525 233.712 104.618C235.624 104.762 237.138 106.293 236.944 108.876C236.746 111.515 235.019 112.831 233.106 112.688C231.864 112.594 230.932 111.907 230.463 110.861L230.435 110.859C230.439 111.182 230.42 111.433 230.398 111.726L230.356 112.285L229.1 112.191L229.938 101.022L231.195 101.116L230.891 105.165ZM232.895 111.577C234.373 111.702 235.498 110.565 235.632 108.778C235.763 107.033 234.818 105.782 233.337 105.685C231.842 105.587 230.762 106.7 230.635 108.389C230.503 110.148 231.402 111.451 232.895 111.577ZM238.003 112.859L238.579 105.18L239.807 105.272L239.707 106.613L239.735 106.615C240.153 105.902 240.911 105.159 242.14 105.251L242.879 105.306L242.798 106.395L241.89 106.327C240.606 106.231 239.704 107.02 239.584 108.625L239.259 112.953L238.003 112.859ZM243.965 104.279L244.064 102.966L245.376 103.065L245.277 104.377L243.965 104.279ZM243.319 113.258L243.896 105.579L245.152 105.673L244.576 113.352L243.319 113.258ZM252.251 113.366C252.273 113.073 252.292 112.822 252.344 112.503L252.316 112.501C251.696 113.465 250.673 114.006 249.43 113.913C247.518 113.769 246.006 112.21 246.204 109.571C246.398 106.988 248.123 105.7 250.036 105.843C251.278 105.937 252.21 106.624 252.679 107.67L252.707 107.672C252.703 107.349 252.722 107.098 252.744 106.805L253.047 102.756L254.304 102.85L253.466 114.019L252.209 113.925L252.251 113.366ZM249.805 112.846C251.3 112.944 252.384 111.79 252.516 110.031C252.642 108.341 251.74 107.08 250.247 106.954C248.769 106.829 247.647 107.924 247.517 109.67C247.382 111.457 248.324 112.749 249.805 112.846ZM259.582 113.088C261.09 113.201 261.802 113.999 261.719 115.115C261.635 116.232 260.808 116.957 259.287 116.842L256.746 116.652C255.336 116.546 254.658 115.849 254.725 114.956C254.777 114.258 255.208 113.757 256.089 113.612C255.237 113.366 254.889 112.764 254.934 112.164C254.984 111.507 255.499 110.999 256.387 110.953C255.792 110.459 255.453 109.746 255.518 108.88C255.638 107.275 257.082 106.372 258.827 106.503C259.665 106.566 260.388 106.845 260.915 107.305L260.929 107.306C260.954 106.971 261.368 106.694 261.773 106.724L262.317 106.765L262.235 107.854L261.914 107.83L261.342 107.787C261.633 108.216 261.789 108.747 261.744 109.347C261.624 110.953 260.166 111.854 258.435 111.724L256.802 111.602C256.369 111.569 256.088 111.759 256.062 112.108C256.029 112.541 256.413 112.85 257.223 112.911L259.582 113.088ZM258.745 107.592C257.727 107.501 256.904 107.987 256.83 108.978C256.756 109.97 257.497 110.573 258.517 110.635C259.537 110.698 260.358 110.24 260.432 109.249C260.506 108.258 259.763 107.682 258.745 107.592ZM259.368 115.753C259.996 115.801 260.366 115.548 260.406 115.017C260.446 114.486 260.115 114.223 259.487 114.176L256.946 113.985C256.318 113.938 255.948 114.191 255.911 114.68C255.87 115.224 256.199 115.516 256.827 115.563L259.368 115.753ZM270.003 110.809L269.927 111.814L263.924 111.364C263.96 112.953 264.838 113.974 266.15 114.072C267.183 114.15 268.051 113.625 268.424 112.769L269.778 112.87C269.346 114.326 267.897 115.298 266.068 115.161C263.835 114.993 262.447 113.275 262.629 110.846C262.819 108.319 264.468 106.926 266.674 107.092C268.74 107.247 270.151 108.841 270.003 110.809ZM266.592 108.181C265.252 108.08 264.27 109.003 264.022 110.248L268.741 110.602C268.7 109.279 267.89 108.278 266.592 108.181ZM276.304 108.572C276.282 108.866 276.263 109.117 276.211 109.436L276.239 109.438C276.859 108.474 277.882 107.933 279.125 108.026C281.037 108.17 282.551 109.701 282.357 112.284C282.159 114.922 280.432 116.239 278.519 116.095C277.277 116.002 276.346 115.315 275.877 114.268L275.849 114.266C275.853 114.59 275.834 114.841 275.812 115.134L275.77 115.692L274.513 115.598L275.351 104.43L276.608 104.524L276.304 108.572ZM278.308 114.984C279.787 115.109 280.911 113.972 281.045 112.185C281.176 110.44 280.231 109.19 278.75 109.093C277.255 108.995 276.175 110.107 276.048 111.796C275.916 113.555 276.815 114.858 278.308 114.984ZM290.617 112.356L290.541 113.361L284.538 112.911C284.573 114.5 285.452 115.52 286.764 115.619C287.797 115.696 288.665 115.172 289.038 114.315L290.392 114.417C289.96 115.873 288.511 116.845 286.682 116.708C284.448 116.54 283.061 114.822 283.243 112.392C283.433 109.866 285.082 108.473 287.288 108.639C289.354 108.794 290.765 110.388 290.617 112.356ZM287.206 109.727C285.866 109.627 284.884 110.55 284.636 111.795L289.355 112.149C289.314 110.826 288.504 109.825 287.206 109.727ZM296.03 110.586L293.81 110.42L293.478 114.845C293.427 115.529 293.732 115.945 294.319 115.989L295.617 116.087L295.535 117.176L294.097 117.068C292.757 116.967 292.109 116.245 292.213 114.863L292.554 110.325L291.158 110.221L291.239 109.132L292.635 109.236L292.792 107.142L294.049 107.237L293.892 109.331L296.112 109.497L296.03 110.586ZM305.245 110.183L306.502 110.277L303.832 117.798L302.408 117.691L301.369 111.52L299.42 117.467L297.982 117.359L296.464 109.524L297.763 109.621L298.809 115.877L300.722 109.843L302.286 109.96L303.277 116.212L305.245 110.183ZM313.917 114.104L313.841 115.11L307.838 114.659C307.873 116.248 308.751 117.269 310.064 117.367C311.097 117.445 311.964 116.92 312.338 116.064L313.692 116.165C313.26 117.621 311.811 118.593 309.982 118.456C307.748 118.289 306.361 116.57 306.543 114.141C306.733 111.614 308.382 110.221 310.587 110.387C312.654 110.542 314.064 112.136 313.917 114.104ZM310.506 111.476C309.165 111.375 308.184 112.298 307.936 113.543L312.654 113.897C312.613 112.575 311.804 111.573 310.506 111.476ZM322.138 114.721L322.062 115.726L316.059 115.276C316.094 116.865 316.972 117.886 318.285 117.984C319.318 118.062 320.185 117.537 320.559 116.681L321.913 116.782C321.481 118.238 320.032 119.21 318.203 119.073C315.969 118.905 314.582 117.187 314.764 114.758C314.954 112.231 316.603 110.838 318.808 111.004C320.875 111.159 322.285 112.753 322.138 114.721ZM318.727 112.093C317.386 111.992 316.405 112.915 316.157 114.16L320.876 114.514C320.834 113.191 320.025 112.19 318.727 112.093ZM323.158 119.248L323.734 111.57L324.963 111.662L324.862 113.002L324.89 113.004C325.336 112.294 326.15 111.555 327.462 111.653C329.124 111.778 330.054 113.041 329.915 114.884L329.552 119.728L328.295 119.634L328.649 114.915C328.756 113.491 328.076 112.822 327.071 112.747C325.913 112.66 324.858 113.423 324.739 115.015L324.414 119.343L323.158 119.248ZM132.662 116.378L130.442 116.212L130.11 120.637C130.059 121.321 130.364 121.737 130.951 121.781L132.249 121.879L132.167 122.968L130.729 122.86C129.389 122.759 128.742 122.037 128.845 120.655L129.186 116.117L127.79 116.013L127.871 114.924L129.267 115.029L129.425 112.934L130.681 113.029L130.524 115.123L132.744 115.289L132.662 116.378ZM133.218 123.047L134.056 111.878L135.313 111.972L135.035 115.672C135.009 116.021 134.989 116.286 134.922 116.801L134.95 116.803C135.397 116.092 136.21 115.353 137.522 115.451C139.184 115.576 140.114 116.839 139.976 118.682L139.612 123.526L138.356 123.432L138.71 118.713C138.817 117.289 138.137 116.621 137.132 116.545C135.973 116.458 134.919 117.222 134.799 118.813L134.475 123.141L133.218 123.047ZM148.558 119.747L148.483 120.752L142.48 120.302C142.515 121.891 143.393 122.912 144.705 123.01C145.738 123.088 146.606 122.563 146.979 121.707L148.333 121.808C147.901 123.264 146.452 124.236 144.623 124.099C142.39 123.931 141.002 122.213 141.185 119.784C141.374 117.257 143.023 115.864 145.229 116.03C147.295 116.185 148.706 117.779 148.558 119.747ZM145.147 117.119C143.807 117.018 142.825 117.941 142.577 119.186L147.296 119.54C147.255 118.217 146.446 117.216 145.147 117.119ZM159.684 123.937L160.256 123.98L160.175 125.069L159.421 125.013C158.499 124.944 158.052 124.362 158.112 123.553L158.125 123.385C157.648 124.501 156.585 125.011 155.356 124.918C153.849 124.805 152.696 123.89 152.822 122.215C152.94 120.638 154.118 119.912 155.96 120.05L156.7 120.105C157.873 120.193 158.275 119.887 158.317 119.328C158.374 118.574 157.724 118.062 156.719 117.987C155.588 117.902 154.777 118.417 154.589 119.428L153.333 119.333C153.566 117.722 154.72 116.742 156.801 116.898C158.937 117.058 159.704 118.239 159.588 119.789L159.315 123.432C159.292 123.74 159.405 123.916 159.684 123.937ZM158.209 121.328L158.282 120.351L158.268 120.349C158.069 120.952 157.414 121.254 156.353 121.174L155.907 121.141C154.65 121.047 154.184 121.643 154.134 122.314C154.08 123.026 154.503 123.759 155.647 123.845C156.904 123.939 158.069 123.199 158.209 121.328ZM166.976 125.018C166.998 124.725 167.017 124.474 167.069 124.155L167.041 124.153C166.421 125.117 165.398 125.658 164.155 125.565C162.243 125.421 160.731 123.862 160.929 121.223C161.123 118.64 162.848 117.352 164.761 117.495C166.003 117.589 166.935 118.276 167.404 119.322L167.432 119.324C167.428 119.001 167.447 118.75 167.469 118.457L167.772 114.408L169.029 114.502L168.191 125.671L166.934 125.577L166.976 125.018ZM164.53 124.498C166.025 124.596 167.109 123.442 167.241 121.683C167.367 119.993 166.465 118.732 164.972 118.606C163.494 118.481 162.372 119.576 162.242 121.321C162.107 123.108 163.049 124.401 164.53 124.498ZM178.941 118.559C180.504 118.677 181.365 119.934 181.226 121.777L180.863 126.622L179.606 126.527L179.96 121.809C180.067 120.385 179.457 119.721 178.55 119.653C177.475 119.572 176.506 120.328 176.386 121.92L176.06 126.261L174.804 126.167L175.158 121.448C175.265 120.024 174.655 119.361 173.747 119.293C172.672 119.212 171.702 119.982 171.583 121.573L171.258 125.901L170.001 125.807L170.578 118.128L171.806 118.22L171.706 119.561L171.733 119.563C172.152 118.85 172.91 118.107 174.138 118.199C175.297 118.286 176.073 118.99 176.34 120.105C176.818 119.158 177.656 118.463 178.941 118.559ZM183.244 117.773L183.343 116.461L184.655 116.559L184.556 117.872L183.244 117.773ZM182.598 126.752L183.175 119.074L184.431 119.168L183.855 126.846L182.598 126.752ZM185.653 126.981L186.229 119.303L187.457 119.395L187.357 120.735L187.385 120.737C187.831 120.027 188.645 119.287 189.957 119.386C191.618 119.511 192.549 120.774 192.41 122.616L192.047 127.461L190.79 127.367L191.144 122.648C191.251 121.224 190.571 120.555 189.566 120.48C188.407 120.393 187.353 121.156 187.234 122.748L186.909 127.075L185.653 126.981ZM203.897 127.255L204.47 127.298L204.388 128.387L203.634 128.33C202.713 128.261 202.265 127.68 202.326 126.87L202.338 126.703C201.862 127.818 200.799 128.328 199.57 128.236C198.062 128.123 196.909 127.208 197.035 125.533C197.154 123.955 198.331 123.229 200.174 123.368L200.914 123.423C202.087 123.511 202.489 123.204 202.531 122.646C202.587 121.892 201.938 121.38 200.932 121.304C199.802 121.22 198.991 121.734 198.803 122.745L197.546 122.651C197.779 121.04 198.934 120.059 201.014 120.216C203.15 120.376 203.918 121.557 203.802 123.106L203.528 126.75C203.505 127.057 203.618 127.234 203.897 127.255ZM202.423 124.645L202.496 123.668L202.482 123.667C202.282 124.27 201.628 124.572 200.567 124.492L200.12 124.459C198.864 124.364 198.398 124.961 198.347 125.631C198.294 126.343 198.716 127.077 199.861 127.163C201.118 127.257 202.282 126.516 202.423 124.645ZM205.367 128.46L205.943 120.782L207.172 120.874L207.071 122.214L207.099 122.216C207.545 121.506 208.359 120.767 209.671 120.865C211.333 120.99 212.263 122.253 212.124 124.096L211.761 128.94L210.504 128.846L210.858 124.127C210.965 122.703 210.285 122.034 209.28 121.959C208.122 121.872 207.067 122.635 206.948 124.227L206.623 128.555L205.367 128.46ZM219.384 128.951C219.406 128.657 219.424 128.406 219.476 128.087L219.449 128.085C218.829 129.049 217.805 129.59 216.563 129.497C214.65 129.353 213.139 127.794 213.337 125.155C213.53 122.573 215.256 121.284 217.168 121.428C218.411 121.521 219.342 122.209 219.811 123.255L219.839 123.257C219.835 122.933 219.854 122.682 219.876 122.389L220.18 118.34L221.436 118.435L220.598 129.603L219.342 129.509L219.384 128.951ZM216.938 128.43C218.433 128.528 219.516 127.374 219.648 125.615C219.775 123.926 218.872 122.665 217.38 122.539C215.901 122.414 214.78 123.509 214.649 125.254C214.515 127.041 215.457 128.333 216.938 128.43ZM228.565 130.398C226.792 130.265 225.608 129.01 225.629 127.426L226.941 127.524C226.953 128.494 227.627 129.232 228.646 129.309C229.777 129.393 230.522 128.818 230.576 128.106C230.638 127.282 230.233 126.873 228.837 126.768L228.321 126.729C226.925 126.624 225.892 125.789 225.992 124.462C226.082 123.262 227.188 122.18 229.17 122.328C230.985 122.464 231.976 123.662 231.971 125.234L230.658 125.135C230.651 124.11 230.108 123.494 229.089 123.417C227.986 123.334 227.359 123.821 227.304 124.561C227.252 125.259 227.594 125.565 228.919 125.679L229.296 125.707C231.041 125.838 231.992 126.822 231.888 128.204C231.798 129.405 230.617 130.552 228.565 130.398ZM237.081 124.213L234.861 124.047L234.529 128.472C234.478 129.157 234.784 129.573 235.37 129.617L236.669 129.714L236.587 130.803L235.149 130.695C233.809 130.595 233.161 129.872 233.265 128.49L233.605 123.953L232.209 123.848L232.291 122.759L233.687 122.864L233.844 120.77L235.1 120.864L234.943 122.958L237.163 123.125L237.081 124.213ZM240.15 131.267C238.53 131.145 237.628 129.884 237.766 128.041L238.13 123.197L239.386 123.291L239.032 128.01C238.925 129.434 239.577 130.101 240.541 130.173C241.657 130.257 242.684 129.491 242.803 127.9L243.128 123.572L244.384 123.666L243.808 131.345L242.58 131.253L242.68 129.912L242.652 129.91C242.22 130.622 241.42 131.362 240.15 131.267ZM251.504 131.361C251.526 131.068 251.545 130.816 251.597 130.497L251.569 130.495C250.949 131.459 249.926 132 248.683 131.907C246.771 131.764 245.259 130.204 245.457 127.566C245.651 124.983 247.376 123.694 249.289 123.838C250.531 123.931 251.463 124.619 251.932 125.665L251.96 125.667C251.956 125.344 251.975 125.092 251.997 124.799L252.3 120.751L253.557 120.845L252.719 132.013L251.462 131.919L251.504 131.361ZM249.058 130.84C250.553 130.938 251.637 129.784 251.769 128.025C251.895 126.336 250.993 125.075 249.5 124.949C248.022 124.824 246.9 125.919 246.77 127.664C246.635 129.451 247.577 130.743 249.058 130.84ZM261.73 128.239L261.655 129.244L255.652 128.794C255.687 130.383 256.565 131.404 257.877 131.502C258.91 131.58 259.778 131.055 260.151 130.198L261.505 130.3C261.073 131.756 259.624 132.728 257.796 132.591C255.562 132.423 254.175 130.705 254.357 128.276C254.546 125.749 256.195 124.356 258.401 124.522C260.467 124.677 261.878 126.271 261.73 128.239ZM258.319 125.611C256.979 125.51 255.997 126.433 255.749 127.678L260.468 128.032C260.427 126.709 259.618 125.708 258.319 125.611ZM262.75 132.766L263.327 125.088L264.555 125.18L264.455 126.52L264.483 126.522C264.929 125.812 265.743 125.072 267.055 125.171C268.716 125.296 269.646 126.559 269.508 128.402L269.144 133.246L267.888 133.152L268.242 128.433C268.349 127.009 267.669 126.34 266.664 126.265C265.505 126.178 264.451 126.941 264.332 128.533L264.007 132.86L262.75 132.766ZM275.419 127.09L273.199 126.924L272.867 131.349C272.816 132.033 273.121 132.449 273.708 132.493L275.006 132.591L274.924 133.68L273.486 133.572C272.146 133.471 271.498 132.749 271.602 131.367L271.943 126.829L270.546 126.725L270.628 125.636L272.024 125.74L272.181 123.646L273.438 123.741L273.281 125.835L275.5 126.001L275.419 127.09ZM281.256 126.995C281.234 127.288 281.215 127.539 281.163 127.858L281.191 127.86C281.811 126.896 282.834 126.355 284.077 126.448C285.989 126.592 287.503 128.123 287.309 130.706C287.111 133.345 285.384 134.661 283.471 134.518C282.229 134.424 281.298 133.737 280.828 132.691L280.801 132.689C280.804 133.012 280.786 133.263 280.764 133.556L280.722 134.115L279.465 134.02L280.303 122.852L281.56 122.946L281.256 126.995ZM283.26 133.407C284.739 133.532 285.863 132.395 285.997 130.608C286.128 128.862 285.183 127.612 283.702 127.515C282.207 127.417 281.127 128.529 281 130.219C280.868 131.978 281.767 133.281 283.26 133.407ZM291.704 135.135C289.582 134.976 288.003 133.383 288.195 130.815C288.389 128.232 290.187 126.907 292.309 127.066C294.431 127.225 296.012 128.804 295.818 131.387C295.625 133.955 293.826 135.294 291.704 135.135ZM291.786 134.046C293.183 134.137 294.36 133.229 294.506 131.288C294.652 129.334 293.623 128.274 292.228 128.155C290.833 128.036 289.654 128.959 289.508 130.913C289.362 132.854 290.388 133.956 291.786 134.046ZM302.766 135.207C302.788 134.914 302.807 134.663 302.859 134.344L302.831 134.342C302.211 135.306 301.188 135.847 299.946 135.754C298.033 135.61 296.521 134.051 296.719 131.412C296.913 128.829 298.638 127.541 300.551 127.684C301.794 127.778 302.725 128.465 303.194 129.511L303.222 129.513C303.218 129.19 303.237 128.939 303.259 128.646L303.562 124.597L304.819 124.691L303.981 135.86L302.724 135.766L302.766 135.207ZM300.32 134.687C301.815 134.785 302.899 133.631 303.031 131.872C303.157 130.182 302.255 128.921 300.763 128.795C299.284 128.67 298.163 129.765 298.032 131.511C297.898 133.298 298.84 134.59 300.32 134.687ZM306.423 127.016L306.522 125.704L307.834 125.802L307.736 127.114L306.423 127.016ZM305.778 135.995L306.354 128.316L307.61 128.411L307.034 136.089L305.778 135.995ZM316.033 132.314L315.957 133.319L309.954 132.868C309.989 134.458 310.867 135.478 312.18 135.577C313.213 135.654 314.08 135.13 314.454 134.273L315.808 134.375C315.376 135.83 313.927 136.803 312.098 136.666C309.864 136.498 308.477 134.779 308.659 132.35C308.849 129.823 310.498 128.431 312.703 128.596C314.77 128.751 316.18 130.345 316.033 132.314ZM312.622 129.685C311.281 129.585 310.3 130.508 310.052 131.753L314.771 132.107C314.729 130.784 313.92 129.783 312.622 129.685ZM319.719 137.237C317.946 137.104 316.762 135.85 316.783 134.265L318.095 134.364C318.107 135.333 318.781 136.072 319.8 136.148C320.931 136.233 321.676 135.657 321.73 134.945C321.792 134.122 321.387 133.712 319.991 133.608L319.474 133.569C318.078 133.464 317.046 132.628 317.146 131.302C317.236 130.102 318.342 129.019 320.324 129.168C322.139 129.304 323.13 130.502 323.125 132.074L321.812 131.975C321.805 130.95 321.262 130.333 320.242 130.257C319.14 130.174 318.513 130.661 318.458 131.401C318.405 132.099 318.748 132.405 320.073 132.519L320.45 132.547C322.195 132.678 323.146 133.662 323.042 135.044C322.952 136.245 321.771 137.391 319.719 137.237Z" fill="#181818"/>
</g>
</g>
<rect x="7.62549" y="0.0626221" width="299" height="60" rx="13.9631" transform="rotate(1.79118 7.62549 0.0626221)" fill="#71191B"/>
<path d="M55.6257 28.5769L55.932 18.7817L62.6627 18.9922L62.6264 20.1537L57.211 19.9843L57.1126 23.1328L61.9822 23.285L61.9459 24.4465L57.0762 24.2942L56.941 28.6181L55.6257 28.5769ZM63.7216 19.8237L63.7627 18.5084L65.078 18.5495L65.0369 19.8649L63.7216 19.8237ZM63.4682 28.8222L63.7088 21.126L64.9682 21.1653L64.7276 28.8616L63.4682 28.8222ZM66.5295 28.9179L66.7702 21.2217L68.0016 21.2602L67.9596 22.6035L67.9876 22.6044C68.4026 21.875 69.1831 21.1011 70.4985 21.1422C72.1637 21.1943 73.148 22.4156 73.0902 24.2627L72.9384 29.1184L71.679 29.079L71.8269 24.3493C71.8715 22.922 71.1631 22.2835 70.1556 22.252C68.9942 22.2157 67.9744 23.0242 67.9245 24.6194L67.7889 28.9573L66.5295 28.9179ZM80.5543 28.7962C80.5635 28.5024 80.5713 28.2505 80.6094 27.9295L80.5814 27.9287C80.0042 28.9191 79.0054 29.5042 77.76 29.4652C75.8429 29.4053 74.2648 27.9132 74.3475 25.2685C74.4285 22.6798 76.0959 21.3172 78.0129 21.3772C79.2583 21.4161 80.2186 22.0625 80.7328 23.087L80.7608 23.0879C80.7429 22.7652 80.7507 22.5133 80.7599 22.2195L80.8868 18.1614L82.1462 18.2008L81.7961 29.3954L80.5368 29.356L80.5543 28.7962ZM78.088 28.383C79.5857 28.4158 80.6177 27.2155 80.6728 25.4523C80.7258 23.7591 79.7695 22.5387 78.2726 22.4778C76.7898 22.4175 75.7176 23.5605 75.6629 25.3097C75.6068 27.1008 76.6043 28.3506 78.088 28.383ZM92.9759 29.1847C92.9851 28.8908 92.993 28.639 93.031 28.318L93.0031 28.3171C92.4258 29.3076 91.427 29.8926 90.1817 29.8537C88.2646 29.7937 86.6865 28.3017 86.7692 25.657C86.8501 23.0682 88.5175 21.7057 90.4346 21.7656C91.68 21.8046 92.6402 22.4509 93.1545 23.4755L93.1825 23.4764C93.1645 23.1536 93.1724 22.9018 93.1816 22.6079L93.3085 18.5499L94.5679 18.5893L94.2178 29.7838L92.9584 29.7444L92.9759 29.1847ZM90.5096 28.7714C92.0073 28.8042 93.0394 27.6039 93.0945 25.8408C93.1475 24.1476 92.1911 22.9271 90.6943 22.8663C89.2115 22.8059 88.1392 23.949 88.0845 25.6981C88.0285 27.4892 89.0259 28.739 90.5096 28.7714ZM103.056 25.62L103.025 26.6275L97.0074 26.4394C97.1119 28.0254 98.0337 29.0067 99.3491 29.0478C100.385 29.0802 101.229 28.5183 101.564 27.6464L102.921 27.6888C102.553 29.162 101.148 30.1966 99.3149 30.1393C97.076 30.0693 95.6151 28.4128 95.6912 25.978C95.7704 23.4452 97.3569 21.9821 99.5679 22.0513C101.639 22.116 103.118 23.647 103.056 25.62ZM99.5337 23.1427C98.1904 23.1007 97.2498 24.0658 97.0564 25.3204L101.786 25.4683C101.687 24.1485 100.835 23.1834 99.5337 23.1427ZM108.387 23.6157L106.162 23.5461L106.023 27.9819C106.002 28.6676 106.325 29.0699 106.913 29.0883L108.214 29.129L108.18 30.2204L106.739 30.1754C105.396 30.1334 104.717 29.4398 104.76 28.0545L104.902 23.5067L103.503 23.4629L103.537 22.3715L104.937 22.4152L105.002 20.3163L106.262 20.3556L106.196 22.4546L108.421 22.5242L108.387 23.6157ZM115.816 29.3667L116.39 29.3846L116.356 30.4761L115.6 30.4525C114.677 30.4236 114.204 29.8625 114.229 29.0509L114.235 28.883C113.807 30.0182 112.767 30.574 111.536 30.5355C110.024 30.4882 108.833 29.6245 108.885 27.9454C108.935 26.3641 110.079 25.5875 111.927 25.6453L112.668 25.6685C113.844 25.7053 114.232 25.3812 114.249 24.8215C114.273 24.0659 113.602 23.5827 112.594 23.5512C111.461 23.5157 110.673 24.0654 110.529 25.0834L109.27 25.044C109.433 23.4243 110.544 22.3945 112.628 22.4597C114.769 22.5266 115.588 23.6728 115.539 25.226L115.425 28.8782C115.416 29.1861 115.536 29.3579 115.816 29.3667ZM114.229 26.8238L114.26 25.8443L114.246 25.8439C114.072 26.4548 113.432 26.7849 112.368 26.7517L111.92 26.7376C110.661 26.6983 110.222 27.3148 110.201 27.9865C110.178 28.7002 110.632 29.4147 111.78 29.4506C113.039 29.49 114.17 28.6989 114.229 26.8238ZM117.576 21.5079L117.617 20.1925L118.933 20.2336L118.891 21.549L117.576 21.5079ZM117.323 30.5063L117.563 22.8101L118.823 22.8495L118.582 30.5457L117.323 30.5063ZM120.384 30.6021L120.734 19.4076L121.993 19.4469L121.643 30.6415L120.384 30.6021ZM130.482 26.4777L130.451 27.4852L124.433 27.297C124.538 28.8831 125.46 29.8644 126.775 29.9055C127.811 29.9379 128.655 29.376 128.99 28.5041L130.347 28.5465C129.979 30.0197 128.574 31.0543 126.741 30.997C124.502 30.927 123.041 29.2705 123.117 26.8357C123.196 24.3029 124.783 22.8398 126.994 22.9089C129.065 22.9737 130.544 24.5047 130.482 26.4777ZM126.96 24.0004C125.616 23.9584 124.676 24.9235 124.482 26.178L129.212 26.3259C129.113 25.0062 128.261 24.0411 126.96 24.0004ZM137.565 30.5791C137.575 30.2853 137.583 30.0334 137.621 29.7124L137.593 29.7115C137.015 30.702 136.017 31.287 134.771 31.2481C132.854 31.1881 131.276 29.6961 131.359 27.0514C131.44 24.4626 133.107 23.1001 135.024 23.16C136.27 23.199 137.23 23.8453 137.744 24.8699L137.772 24.8708C137.754 24.5481 137.762 24.2962 137.771 24.0023L137.898 19.9443L139.157 19.9837L138.807 31.1782L137.548 31.1388L137.565 30.5791ZM135.099 30.1658C136.597 30.1986 137.629 28.9983 137.684 27.2352C137.737 25.542 136.781 24.3215 135.284 24.2607C133.801 24.2003 132.729 25.3434 132.674 27.0925C132.618 28.8836 133.615 30.1334 135.099 30.1658ZM144.36 22.3455L144.401 21.0301L145.716 21.0712L145.675 22.3866L144.36 22.3455ZM144.106 31.3439L144.347 23.6477L145.607 23.6871L145.366 31.3833L144.106 31.3439ZM147.168 31.4397L147.408 23.7434L148.64 23.7819L148.598 25.1253L148.626 25.1262C149.041 24.3968 149.821 23.6228 151.137 23.6639C152.802 23.716 153.786 24.9374 153.729 26.7845L153.577 31.6401L152.317 31.6007L152.465 26.871C152.51 25.4437 151.801 24.8053 150.794 24.7738C149.633 24.7374 148.613 25.546 148.563 27.1412L148.427 31.4791L147.168 31.4397ZM158.026 21.9324C157.439 21.9141 157.089 22.3513 157.064 23.1489L157.036 24.0445L158.715 24.097L158.681 25.1885L157.002 25.136L156.795 31.7407L155.536 31.7014L155.742 25.0966L154.763 25.066L154.797 23.9745L155.777 24.0051L155.805 23.1096C155.849 21.6823 156.689 20.7981 158.061 20.841L159.376 20.8821L159.342 21.9736L158.026 21.9324ZM162.586 32.1179C160.459 32.0514 158.812 30.5292 158.893 27.9545C158.974 25.3657 160.712 23.9634 162.839 24.0299C164.966 24.0964 166.614 25.6046 166.533 28.1934C166.452 30.7681 164.713 32.1845 162.586 32.1179ZM162.621 31.0265C164.02 31.0562 165.157 30.0973 165.218 28.1522C165.279 26.1932 164.204 25.1791 162.805 25.1214C161.406 25.0636 160.269 26.0365 160.208 27.9956C160.147 29.9406 161.221 30.9967 162.621 31.0265ZM167.775 32.0841L168.016 24.3879L169.247 24.4264L169.205 25.7697L169.233 25.7706C169.62 25.0403 170.345 24.2646 171.576 24.3031L172.318 24.3263L172.283 25.4178L171.374 25.3893C170.087 25.3491 169.22 26.1764 169.17 27.7856L169.034 32.1235L167.775 32.0841ZM181.733 24.6207C183.3 24.6697 184.214 25.8889 184.157 27.736L184.005 32.5916L182.745 32.5523L182.893 27.8226C182.938 26.3953 182.299 25.759 181.39 25.7306C180.312 25.6969 179.377 26.494 179.327 28.0892L179.191 32.4411L177.932 32.4017L178.08 27.672C178.124 26.2447 177.486 25.6085 176.576 25.58C175.499 25.5463 174.563 26.3575 174.513 27.9527L174.377 32.2906L173.118 32.2512L173.359 24.555L174.59 24.5935L174.548 25.9368L174.576 25.9377C174.963 25.2074 175.688 24.4317 176.919 24.4702C178.081 24.5065 178.886 25.176 179.202 26.2784C179.638 25.3116 180.445 24.5805 181.733 24.6207ZM192.341 31.7598L192.915 31.7777L192.881 32.8692L192.125 32.8456C191.202 32.8167 190.729 32.2557 190.754 31.4441L190.76 31.2761C190.332 32.4113 189.292 32.9671 188.061 32.9286C186.549 32.8813 185.358 32.0177 185.41 30.3385C185.46 28.7572 186.605 27.9807 188.452 28.0384L189.193 28.0616C190.369 28.0984 190.757 27.7743 190.775 27.2146C190.798 26.459 190.127 25.9758 189.119 25.9443C187.986 25.9088 187.198 26.4585 187.055 27.4765L185.795 27.4371C185.958 25.8174 187.069 24.7876 189.154 24.8528C191.295 24.9197 192.113 26.0659 192.065 27.6191L191.95 31.2713C191.941 31.5792 192.061 31.7511 192.341 31.7598ZM190.754 29.217L190.785 28.2374L190.771 28.237C190.597 28.8479 189.957 29.178 188.893 29.1448L188.446 29.1308C187.186 29.0914 186.747 29.7079 186.726 30.3796C186.703 31.0933 187.157 31.8078 188.305 31.8437C189.564 31.8831 190.695 31.092 190.754 29.217ZM198.112 26.4216L195.887 26.352L195.749 30.7878C195.727 31.4735 196.051 31.8758 196.639 31.8942L197.94 31.9349L197.906 33.0264L196.465 32.9813C195.121 32.9393 194.443 32.2457 194.486 30.8604L194.628 26.3126L193.229 26.2689L193.263 25.1774L194.662 25.2212L194.728 23.1222L195.987 23.1616L195.922 25.2605L198.146 25.3301L198.112 26.4216ZM199.198 24.0604L199.239 22.745L200.555 22.7862L200.514 24.1015L199.198 24.0604ZM198.945 33.0589L199.186 25.3626L200.445 25.402L200.204 33.0982L198.945 33.0589ZM205.358 33.4555C203.232 33.389 201.584 31.8668 201.665 29.292C201.746 26.7033 203.484 25.301 205.611 25.3675C207.738 25.434 209.386 26.9422 209.305 29.531C209.225 32.1057 207.485 33.522 205.358 33.4555ZM205.393 32.364C206.792 32.3938 207.929 31.4349 207.99 29.4898C208.051 27.5308 206.976 26.5167 205.577 26.4589C204.178 26.4012 203.041 27.3741 202.98 29.3332C202.919 31.2782 203.993 32.3343 205.393 32.364ZM210.547 33.4217L210.788 25.7254L212.019 25.7639L211.977 27.1073L212.005 27.1082C212.42 26.3788 213.201 25.6048 214.516 25.6459C216.181 25.698 217.165 26.9194 217.108 28.7665L216.956 33.6221L215.696 33.5827L215.844 28.853C215.889 27.4257 215.181 26.7873 214.173 26.7558C213.012 26.7194 211.992 27.528 211.942 29.1232L211.806 33.4611L210.547 33.4217ZM225.556 34.0871C223.429 34.0206 221.781 32.4984 221.862 29.9236C221.943 27.3349 223.682 25.9326 225.809 25.9991C227.936 26.0656 229.583 27.5738 229.502 30.1626C229.422 32.7373 227.683 34.1536 225.556 34.0871ZM225.59 32.9957C226.99 33.0254 228.126 32.0665 228.187 30.1214C228.248 28.1624 227.173 27.1483 225.774 27.0905C224.376 27.0328 223.239 28.0057 223.177 29.9648C223.116 31.9098 224.19 32.9659 225.59 32.9957ZM230.744 34.0533L230.985 26.357L232.216 26.3956L232.174 27.7389L232.202 27.7398C232.617 27.0104 233.398 26.2364 234.713 26.2775C236.378 26.3296 237.363 27.551 237.305 29.3981L237.153 34.2537L235.894 34.2143L236.042 29.4846C236.086 28.0573 235.378 27.4189 234.37 27.3874C233.209 27.351 232.189 28.1596 232.139 29.7548L232.004 34.0927L230.744 34.0533ZM248.983 33.5311L249.557 33.5491L249.523 34.6405L248.767 34.6169C247.844 34.588 247.371 34.027 247.397 33.2154L247.402 33.0475C246.974 34.1826 245.934 34.7384 244.703 34.6999C243.192 34.6526 242 33.789 242.053 32.1098C242.102 30.5286 243.247 29.752 245.094 29.8097L245.836 29.8329C247.011 29.8697 247.399 29.5457 247.417 28.9859C247.44 28.2303 246.769 27.7471 245.762 27.7156C244.628 27.6801 243.841 28.2298 243.697 29.2478L242.437 29.2084C242.6 27.5887 243.711 26.5589 245.796 26.6241C247.937 26.6911 248.755 27.8372 248.707 29.3905L248.593 33.0427C248.583 33.3505 248.704 33.5224 248.983 33.5311ZM247.396 30.9883L247.427 30.0088L247.413 30.0083C247.24 30.6192 246.599 30.9493 245.536 30.9161L245.088 30.9021C243.828 30.8627 243.389 31.4793 243.368 32.1509C243.346 32.8646 243.799 33.5791 244.947 33.615C246.206 33.6544 247.338 32.8634 247.396 30.9883ZM250.504 34.6712L250.854 23.4767L252.113 23.5161L251.763 34.7106L250.504 34.6712ZM253.579 34.7674L253.929 23.5728L255.188 23.6122L254.838 34.8068L253.579 34.7674ZM41.7042 39.0069C41.695 39.3008 41.6871 39.5526 41.6491 39.8736L41.6771 39.8745C42.2543 38.884 43.2531 38.299 44.4985 38.3379C46.4155 38.3979 47.9946 39.8619 47.9136 42.4507C47.8309 45.0954 46.1626 46.4859 44.2456 46.426C43.0002 46.387 42.0399 45.7407 41.5257 44.7161L41.4977 44.7152C41.5156 45.038 41.5077 45.2898 41.4985 45.5837L41.481 46.1434L40.2217 46.104L40.5717 34.9095L41.8311 34.9489L41.7042 39.0069ZM43.9858 45.3253C45.4687 45.3857 46.5422 44.2007 46.5982 42.4095C46.6529 40.6604 45.6542 39.4526 44.1705 39.4202C42.6728 39.3874 41.6421 40.5457 41.5891 42.2389C41.534 44.002 42.489 45.2645 43.9858 45.3253ZM51.6717 46.6582C50.0485 46.6074 49.0921 45.3869 49.1499 43.5398L49.3017 38.6842L50.5611 38.7236L50.4132 43.4533C50.3686 44.8806 51.049 45.5182 52.0145 45.5484C53.134 45.5834 54.1258 44.774 54.1756 43.1788L54.3113 38.8409L55.5707 38.8803L55.33 46.5765L54.0986 46.538L54.1406 45.1946L54.1126 45.1938C53.7116 45.9236 52.945 46.698 51.6717 46.6582ZM57.3922 37.6346L57.4334 36.3192L58.7487 36.3604L58.7076 37.6757L57.3922 37.6346ZM57.1388 46.6331L57.3795 38.9368L58.6389 38.9762L58.3982 46.6724L57.1388 46.6331ZM60.2002 46.7288L60.5502 35.5343L61.8096 35.5737L61.4595 46.7682L60.2002 46.7288ZM69.1415 46.4481C69.1507 46.1543 69.1585 45.9024 69.1966 45.5814L69.1686 45.5806C68.5914 46.571 67.5926 47.1561 66.3472 47.1171C64.4301 47.0572 62.852 45.5651 62.9347 42.9204C63.0157 40.3317 64.6831 38.9691 66.6001 39.0291C67.8455 39.068 68.8058 39.7144 69.32 40.7389L69.348 40.7398C69.3301 40.4171 69.338 40.1652 69.3471 39.8714L69.4741 35.8133L70.7334 35.8527L70.3834 47.0473L69.124 47.0079L69.1415 46.4481ZM66.6752 46.0349C68.1729 46.0677 69.2049 44.8674 69.2601 43.1042C69.313 41.411 68.3567 40.1906 66.8599 40.1297C65.377 40.0694 64.3048 41.2124 64.2501 42.9615C64.1941 44.7527 65.1915 46.0025 66.6752 46.0349ZM72.4376 38.1051L72.4787 36.7897L73.7941 36.8309L73.753 38.1462L72.4376 38.1051ZM72.1842 47.1036L72.4249 39.4073L73.6843 39.4467L73.4436 47.143L72.1842 47.1036ZM75.2455 47.1993L75.4862 39.5031L76.7176 39.5416L76.6756 40.8849L76.7036 40.8858C77.1186 40.1564 77.8992 39.3824 79.2145 39.4236C80.8797 39.4756 81.864 40.697 81.8063 42.5441L81.6544 47.3997L80.395 47.3603L80.5429 42.6306C80.5876 41.2033 79.8792 40.5649 78.8717 40.5334C77.7102 40.4971 76.6905 41.3056 76.6406 42.9008L76.5049 47.2387L75.2455 47.1993ZM87.6589 46.2008C89.1702 46.2481 89.9166 47.0138 89.8816 48.1332C89.8466 49.2527 89.0525 50.0122 87.5272 49.9645L84.9805 49.8849C83.5672 49.8407 82.8596 49.1743 82.8876 48.2787C82.9095 47.579 83.318 47.0596 84.1921 46.8768C83.3302 46.6677 82.9564 46.0818 82.9752 45.4801C82.9957 44.8224 83.4886 44.2915 84.3736 44.2072C83.7579 43.7397 83.3876 43.0418 83.4147 42.1742C83.465 40.565 84.8679 39.6004 86.617 39.6551C87.4566 39.6813 88.1912 39.9284 88.7378 40.3657L88.7518 40.3661C88.7623 40.0303 89.1638 39.7347 89.5696 39.7474L90.1153 39.7645L90.0812 40.8559L89.7593 40.8459L89.1856 40.8279C89.4948 41.2438 89.6745 41.7677 89.6557 42.3694C89.6053 43.9786 88.1885 44.9428 86.4534 44.8885L84.8162 44.8373C84.3824 44.8237 84.1099 45.0253 84.099 45.3751C84.0854 45.8089 84.4825 46.1015 85.2941 46.1269L87.6589 46.2008ZM86.5829 40.7465C85.5618 40.7006 84.7611 41.2218 84.7301 42.2153C84.699 43.2088 85.4656 43.7791 86.4875 43.797C87.5094 43.815 88.3092 43.3217 88.3403 42.3282C88.3714 41.3347 87.6039 40.7925 86.5829 40.7465ZM87.5614 48.8731C88.191 48.8928 88.5496 48.6238 88.5663 48.0921C88.5829 47.5604 88.2405 47.3115 87.6108 47.2918L85.064 47.2122C84.4344 47.1925 84.0758 47.4614 84.0605 47.9512C84.0434 48.4969 84.3849 48.7737 85.0146 48.7934L87.5614 48.8731ZM93.7641 47.9745C91.9869 47.9189 90.7499 46.7177 90.7014 45.1334L92.0167 45.1745C92.0705 46.1427 92.7767 46.8511 93.7982 46.883C94.9316 46.9185 95.651 46.3107 95.6733 45.597C95.6991 44.7714 95.2772 44.3801 93.8778 44.3363L93.3601 44.3201C91.9608 44.2763 90.8929 43.4866 90.9345 42.1572C90.9721 40.9538 92.03 39.8243 94.017 39.8865C95.8361 39.9434 96.8786 41.0965 96.9415 42.6672L95.6261 42.6261C95.5741 41.602 95.0044 41.0099 93.9829 40.9779C92.8774 40.9434 92.2731 41.4567 92.2499 42.1984C92.228 42.898 92.5831 43.1893 93.912 43.2448L94.2898 43.2566C96.0389 43.3113 97.032 44.2528 96.9887 45.6382C96.951 46.8416 95.8211 48.0388 93.7641 47.9745ZM108.353 47.1421L108.926 47.16L108.892 48.2515L108.137 48.2279C107.213 48.199 106.74 47.6379 106.766 46.8263L106.771 46.6584C106.343 47.7936 105.303 48.3494 104.072 48.3109C102.561 48.2636 101.369 47.3999 101.422 45.7208C101.471 44.1395 102.616 43.3629 104.463 43.4207L105.205 43.4439C106.38 43.4807 106.768 43.1566 106.786 42.5969C106.81 41.8413 106.138 41.3581 105.131 41.3266C103.997 41.2911 103.21 41.8408 103.066 42.8588L101.807 42.8194C101.969 41.1997 103.08 40.1699 105.165 40.2351C107.306 40.302 108.124 41.4482 108.076 43.0014L107.962 46.6536C107.952 46.9615 108.073 47.1333 108.353 47.1421ZM106.765 44.5992L106.796 43.6197L106.782 43.6193C106.609 44.2302 105.968 44.5603 104.905 44.527L104.457 44.513C103.198 44.4737 102.758 45.0902 102.737 45.7619C102.715 46.4755 103.169 47.1901 104.316 47.226C105.575 47.2654 106.707 46.4743 106.765 44.5992ZM109.873 48.2822L110.114 40.5859L111.345 40.6245L111.303 41.9678L111.331 41.9687C111.746 41.2393 112.527 40.4653 113.842 40.5064C115.507 40.5585 116.492 41.7799 116.434 43.627L116.282 48.4826L115.023 48.4432L115.171 43.7135C115.215 42.2862 114.507 41.6478 113.499 41.6163C112.338 41.5799 111.318 42.3885 111.268 43.9837L111.133 48.3216L109.873 48.2822ZM123.898 48.1605C123.907 47.8666 123.915 47.6148 123.953 47.2938L123.925 47.2929C123.348 48.2834 122.349 48.8684 121.104 48.8295C119.187 48.7695 117.608 47.2775 117.691 44.6328C117.772 42.044 119.44 40.6815 121.357 40.7414C122.602 40.7804 123.562 41.4267 124.076 42.4513L124.104 42.4522C124.087 42.1294 124.094 41.8776 124.104 41.5837L124.23 37.5257L125.49 37.5651L125.14 48.7596L123.88 48.7202L123.898 48.1605ZM121.432 47.7472C122.929 47.78 123.961 46.5797 124.016 44.8166C124.069 43.1234 123.113 41.9029 121.616 41.8421C120.133 41.7817 119.061 42.9248 119.007 44.6739C118.95 46.465 119.948 47.7148 121.432 47.7472ZM130.453 48.9258L130.803 37.7312L132.062 37.7706L131.712 48.9651L130.453 48.9258ZM136.88 49.3228C134.753 49.2563 133.106 47.7341 133.186 45.1593C133.267 42.5706 135.006 41.1683 137.133 41.2348C139.26 41.3013 140.907 42.8095 140.826 45.3983C140.746 47.973 139.007 49.3894 136.88 49.3228ZM136.914 48.2314C138.314 48.2611 139.45 47.3022 139.511 45.3571C139.572 43.3981 138.498 42.384 137.099 42.3263C135.7 42.2685 134.563 43.2414 134.502 45.2005C134.441 47.1455 135.514 48.2016 136.914 48.2314ZM145.421 49.5899C143.14 49.5186 141.651 47.8612 141.727 45.4124C141.802 43.0336 143.281 41.427 145.674 41.5019C147.856 41.5701 149.016 43.0211 149.13 44.7475L147.814 44.7064C147.765 43.6123 147.011 42.6362 145.639 42.5933C144.086 42.5448 143.097 43.7324 143.043 45.4536C142.986 47.2727 144.041 48.4543 145.455 48.4985C146.812 48.5409 147.6 47.529 147.753 46.6794L149.068 46.7205C148.809 48.2812 147.534 49.656 145.421 49.5899ZM156.85 48.6587L157.424 48.6767L157.39 49.7681L156.634 49.7445C155.711 49.7156 155.238 49.1546 155.263 48.343L155.269 48.1751C154.841 49.3102 153.801 49.866 152.57 49.8275C151.059 49.7802 149.867 48.9166 149.919 47.2374C149.969 45.6562 151.114 44.8796 152.961 44.9373L153.702 44.9605C154.878 44.9973 155.266 44.6733 155.284 44.1135C155.307 43.3579 154.636 42.8747 153.629 42.8432C152.495 42.8077 151.708 43.3574 151.564 44.3754L150.304 44.336C150.467 42.7163 151.578 41.6865 153.663 41.7517C155.804 41.8187 156.622 42.9648 156.574 44.5181L156.459 48.1703C156.45 48.4781 156.571 48.65 156.85 48.6587ZM155.263 46.1159L155.294 45.1364L155.28 45.1359C155.107 45.7468 154.466 46.0769 153.402 46.0437L152.955 46.0297C151.695 45.9903 151.256 46.6069 151.235 47.2785C151.212 47.9922 151.666 48.7067 152.814 48.7426C154.073 48.782 155.204 47.991 155.263 46.1159ZM162.621 43.3205L160.397 43.2509L160.258 47.6868C160.236 48.3724 160.56 48.7747 161.148 48.7931L162.449 48.8338L162.415 49.9253L160.974 49.8802C159.63 49.8382 158.952 49.1446 158.995 47.7593L159.137 43.2115L157.738 43.1678L157.772 42.0763L159.171 42.1201L159.237 40.0211L160.496 40.0605L160.431 42.1595L162.656 42.229L162.621 43.3205ZM163.707 40.9593L163.749 39.6439L165.064 39.6851L165.023 41.0004L163.707 40.9593ZM163.454 49.9578L163.695 42.2615L164.954 42.3009L164.713 49.9972L163.454 49.9578ZM169.868 50.3544C167.741 50.2879 166.093 48.7657 166.174 46.1909C166.255 43.6022 167.994 42.1999 170.121 42.2664C172.247 42.3329 173.895 43.8411 173.814 46.4299C173.734 49.0046 171.995 50.421 169.868 50.3544ZM169.902 49.263C171.301 49.2927 172.438 48.3338 172.499 46.3887C172.56 44.4297 171.485 43.4156 170.086 43.3579C168.688 43.3001 167.551 44.273 167.489 46.2321C167.428 48.1771 168.502 49.2332 169.902 49.263ZM175.056 50.3206L175.297 42.6244L176.528 42.6629L176.486 44.0062L176.514 44.0071C176.929 43.2777 177.71 42.5037 179.025 42.5449C180.69 42.5969 181.675 43.8183 181.617 45.6654L181.465 50.521L180.206 50.4816L180.354 45.7519C180.398 44.3246 179.69 43.6862 178.682 43.6547C177.521 43.6184 176.501 44.4269 176.451 46.0221L176.316 50.36L175.056 50.3206ZM185.895 50.8556C184.118 50.8001 182.881 49.5988 182.832 48.0145L184.147 48.0557C184.201 49.0238 184.907 49.7322 185.929 49.7642C187.062 49.7996 187.782 49.1918 187.804 48.4782C187.83 47.6526 187.408 47.2612 186.009 47.2174L185.491 47.2012C184.092 47.1575 183.024 46.3677 183.065 45.0384C183.103 43.8349 184.161 42.7055 186.148 42.7676C187.967 42.8245 189.009 43.9776 189.072 45.5484L187.757 45.5072C187.705 44.4831 187.135 43.891 186.114 43.8591C185.008 43.8245 184.404 44.3379 184.381 45.0795C184.359 45.7791 184.714 46.0704 186.043 46.126L186.421 46.1378C188.17 46.1925 189.163 47.134 189.119 48.5193C189.082 49.7227 187.952 50.92 185.895 50.8556ZM197.253 51.2108C195.126 51.1443 193.478 49.6221 193.559 47.0473C193.64 44.4586 195.379 43.0563 197.506 43.1228C199.633 43.1893 201.28 44.6975 201.199 47.2863C201.119 49.861 199.38 51.2773 197.253 51.2108ZM197.287 50.1194C198.687 50.1491 199.823 49.1902 199.884 47.2451C199.945 45.2861 198.87 44.272 197.471 44.2142C196.073 44.1565 194.936 45.1294 194.874 47.0885C194.814 49.0335 195.887 50.0896 197.287 50.1194ZM202.441 51.177L202.682 43.4807L203.913 43.5193L203.871 44.8626L203.899 44.8635C204.314 44.1341 205.095 43.3601 206.41 43.4012C208.075 43.4533 209.06 44.6747 209.002 46.5218L208.85 51.3774L207.591 51.338L207.739 46.6083C207.783 45.181 207.075 44.5426 206.067 44.5111C204.906 44.4748 203.886 45.2833 203.836 46.8785L203.701 51.2164L202.441 51.177ZM217.45 51.8424C215.169 51.7711 213.68 50.1138 213.757 47.665C213.831 45.2861 215.31 43.6796 217.703 43.7544C219.886 43.8227 221.045 45.2736 221.159 47L219.844 46.9589C219.794 45.8648 219.04 44.8887 217.669 44.8459C216.115 44.7973 215.126 45.9849 215.072 47.7061C215.015 49.5252 216.071 50.7068 217.484 50.751C218.841 50.7934 219.629 49.7816 219.782 48.9319L221.097 48.973C220.838 50.5337 219.563 51.9085 217.45 51.8424ZM228.88 50.9112L229.453 50.9292L229.419 52.0206L228.664 51.997C227.74 51.9681 227.267 51.4071 227.293 50.5955L227.298 50.4276C226.87 51.5628 225.83 52.1185 224.599 52.08C223.088 52.0328 221.896 51.1691 221.949 49.4899C221.998 47.9087 223.143 47.1321 224.99 47.1898L225.732 47.213C226.907 47.2498 227.295 46.9258 227.313 46.3661C227.337 45.6104 226.665 45.1272 225.658 45.0957C224.524 45.0603 223.737 45.6099 223.593 46.6279L222.334 46.5885C222.496 44.9688 223.607 43.939 225.692 44.0042C227.833 44.0712 228.651 45.2173 228.603 46.7706L228.489 50.4228C228.479 50.7306 228.6 50.9025 228.88 50.9112ZM227.292 48.3684L227.323 47.3889L227.309 47.3884C227.136 47.9993 226.495 48.3294 225.432 48.2962L224.984 48.2822C223.725 48.2428 223.285 48.8594 223.264 49.531C223.242 50.2447 223.696 50.9592 224.843 50.9951C226.102 51.0345 227.234 50.2435 227.292 48.3684ZM239.015 44.4209C240.582 44.4699 241.496 45.6891 241.439 47.5361L241.287 52.3918L240.027 52.3524L240.175 47.6227C240.22 46.1954 239.582 45.5591 238.672 45.5307C237.595 45.497 236.659 46.2941 236.609 47.8894L236.473 52.2412L235.214 52.2019L235.362 47.4722C235.406 46.0449 234.768 45.4086 233.858 45.3802C232.781 45.3465 231.845 46.1576 231.795 47.7528L231.66 52.0907L230.4 52.0513L230.641 44.3551L231.872 44.3936L231.83 45.7369L231.858 45.7378C232.245 45.0076 232.97 44.2318 234.201 44.2703C235.363 44.3067 236.168 44.9762 236.484 46.0786C236.92 45.1117 237.728 44.3806 239.015 44.4209ZM244.523 45.3495C244.514 45.6433 244.506 45.8952 244.468 46.2162L244.496 46.2171C245.073 45.2266 246.072 44.6416 247.317 44.6805C249.234 44.7405 250.813 46.2045 250.732 48.7933C250.65 51.438 248.981 52.8285 247.064 52.7685C245.819 52.7296 244.859 52.0833 244.344 51.0587L244.316 51.0578C244.334 51.3805 244.327 51.6324 244.317 51.9263L244.225 54.8648L242.966 54.8255L243.281 44.7504L244.541 44.7898L244.523 45.3495ZM246.805 51.6679C248.287 51.7283 249.361 50.5432 249.417 48.7521C249.472 47.003 248.473 45.7952 246.989 45.7628C245.492 45.7299 244.461 46.8883 244.408 48.5815C244.353 50.3446 245.308 51.6071 246.805 51.6679ZM254.49 53.0008C252.867 52.95 251.911 51.7295 251.969 49.8824L252.121 45.0268L253.38 45.0662L253.232 49.7959C253.187 51.2232 253.868 51.8608 254.833 51.891C255.953 51.926 256.945 51.1166 256.994 49.5213L257.13 45.1835L258.389 45.2228L258.149 52.9191L256.917 52.8806L256.959 51.5372L256.931 51.5364C256.53 52.2662 255.764 53.0406 254.49 53.0008ZM262.652 53.256C260.875 53.2004 259.638 51.9992 259.59 50.4149L260.905 50.456C260.959 51.4242 261.665 52.1326 262.686 52.1645C263.82 52.2 264.539 51.5922 264.561 50.8785C264.587 50.0529 264.165 49.6616 262.766 49.6178L262.248 49.6016C260.849 49.5578 259.781 48.7681 259.823 47.4387C259.86 46.2353 260.918 45.1058 262.905 45.168C264.724 45.2249 265.767 46.378 265.83 47.9487L264.514 47.9076C264.462 46.8835 263.893 46.2914 262.871 46.2594C261.766 46.2249 261.161 46.7382 261.138 47.4799C261.116 48.1795 261.471 48.4708 262.8 48.5263L263.178 48.5381C264.927 48.5928 265.92 49.5343 265.877 50.9197C265.839 52.1231 264.709 53.3203 262.652 53.256ZM267.411 53.2087L267.455 51.8094L268.854 51.8532L268.811 53.2525L267.411 53.2087Z" fill="white"/>
<defs>
<filter id="filter0_d_0_27" x="56.5548" y="74.2998" width="322.29" height="97.3876" filterUnits="userSpaceOnUse" color-interpolation-filters="sRGB">
<feFlood flood-opacity="0" result="BackgroundImageFix"/>
<feColorMatrix in="SourceAlpha" type="matrix" values="0 0 0 0 0 0 0 0 0 0 0 0 0 0 0 0 0 0 127 0" result="hardAlpha"/>
<feOffset dx="-8" dy="7.97889"/>
<feGaussianBlur stdDeviation="5"/>
<feComposite in2="hardAlpha" operator="out"/>
<feColorMatrix type="matrix" values="0 0 0 0 0 0 0 0 0 0 0 0 0 0 0 0 0 0 0.05 0"/>
<feBlend mode="normal" in2="BackgroundImageFix" result="effect1_dropShadow_0_27"/>
<feBlend mode="normal" in="SourceGraphic" in2="effect1_dropShadow_0_27" result="shape"/>
</filter>
<clipPath id="clip0_0_27">
<rect x="78.6829" y="76.3209" width="299" height="55.1695" rx="13.9631" transform="rotate(4.29118 78.6829 76.3209)" fill="white"/>
</clipPath>
</defs>
</svg>
